<svg width="168" height="167" viewBox="0 0 168 167" fill="none" xmlns="http://www.w3.org/2000/svg">
<path fill-rule="evenodd" clip-rule="evenodd" d="M134.5 52.5V78.6049C136.159 78.38 137.827 78.216 139.5 78.1149V49.5L120 30L103.5 46.5V20.5L84 1L64.5 20.5V46.5L47 30L27.5 49.5V78.0613C29.1719 78.1369 30.8398 78.2755 32.5 78.4752V52.5L47.5 37.5V82.0065C55.5076 84.8485 63.0092 89.127 69.5 94.6066V23.5L84.5 8.5V110.977C92.4701 97.7185 105.126 87.7231 119.5 82.375V37.5L134.5 52.5ZM88 129.872V166H80V129.875C48.5533 137.219 13.6541 119.484 1.83711 89.0446L82.096 126.47C82.2214 126.16 82.3492 125.852 82.4794 125.545L78.0038 123.458C66.3866 100.387 35.1297 85.8118 9.98872 91.7424L2.25978 88.1383C33.3356 77.5694 69.5691 93.1204 84.0069 122.223C98.4447 93.1204 134.678 77.5694 165.754 88.1383L158.025 91.7424C132.884 85.8118 101.627 100.387 90.01 123.458L85.5344 125.545C85.6646 125.852 85.7924 126.16 85.9178 126.47L166.177 89.0446C154.358 119.489 119.45 137.224 88 129.872ZM83.2327 127L82.8238 126.809L84.0069 126.258L85.19 126.809L84.7811 127H83.2327Z" fill="black"/>
<path d="M134.5 78.6049H134V79.1772L134.567 79.1003L134.5 78.6049ZM134.5 52.5H135V52.2929L134.854 52.1464L134.5 52.5ZM139.5 78.1149L139.53 78.614L140 78.5856V78.1149H139.5ZM139.5 49.5H140V49.2929L139.854 49.1464L139.5 49.5ZM120 30L120.354 29.6464L120 29.2929L119.646 29.6464L120 30ZM103.5 46.5H103V47.7071L103.854 46.8536L103.5 46.5ZM103.5 20.5H104V20.2929L103.854 20.1464L103.5 20.5ZM84 1L84.3536 0.646447L84 0.292893L83.6464 0.646447L84 1ZM64.5 20.5L64.1464 20.1464L64 20.2929V20.5H64.5ZM64.5 46.5L64.157 46.8638L65 47.6586V46.5H64.5ZM47 30L47.343 29.6362L46.9898 29.3031L46.6464 29.6464L47 30ZM27.5 49.5L27.1464 49.1464L27 49.2929V49.5H27.5ZM27.5 78.0613H27V78.5392L27.4774 78.5608L27.5 78.0613ZM32.5 78.4752L32.4403 78.9716L33 79.0389V78.4752H32.5ZM32.5 52.5L32.1464 52.1464L32 52.2929V52.5H32.5ZM47.5 37.5H48V36.2929L47.1464 37.1464L47.5 37.5ZM47.5 82.0065H47V82.3596L47.3328 82.4777L47.5 82.0065ZM69.5 94.6066L69.1775 94.9887L70 95.6831V94.6066H69.5ZM69.5 23.5L69.1464 23.1464L69 23.2929V23.5H69.5ZM84.5 8.5H85V7.29289L84.1464 8.14645L84.5 8.5ZM84.5 110.977H84V112.779L84.9285 111.235L84.5 110.977ZM119.5 82.375L119.674 82.8436L120 82.7224V82.375H119.5ZM119.5 37.5L119.854 37.1464L119 36.2929V37.5H119.5ZM88 166V166.5H88.5V166H88ZM88 129.872L88.1138 129.385L87.5 129.241V129.872H88ZM80 166H79.5V166.5H80V166ZM80 129.875H80.5V129.245L79.8863 129.388L80 129.875ZM1.83711 89.0446L2.04842 88.5915L0.920687 88.0656L1.371 89.2256L1.83711 89.0446ZM82.096 126.47L81.8847 126.923L82.3617 127.146L82.5594 126.658L82.096 126.47ZM82.4794 125.545L82.9397 125.741L83.1282 125.296L82.6907 125.092L82.4794 125.545ZM78.0038 123.458L77.5573 123.683L77.6353 123.838L77.7925 123.911L78.0038 123.458ZM9.98872 91.7424L9.77741 92.1955L9.93465 92.2688L10.1035 92.229L9.98872 91.7424ZM2.25978 88.1383L2.09879 87.665L0.920739 88.0656L2.04847 88.5915L2.25978 88.1383ZM84.0069 122.223L83.559 122.445L84.0069 123.348L84.4548 122.445L84.0069 122.223ZM165.754 88.1383L165.965 88.5915L167.093 88.0656L165.915 87.665L165.754 88.1383ZM158.025 91.7424L157.91 92.229L158.079 92.2688L158.236 92.1955L158.025 91.7424ZM90.01 123.458L90.2213 123.911L90.3785 123.838L90.4565 123.683L90.01 123.458ZM85.5344 125.545L85.3231 125.092L84.8856 125.296L85.0741 125.741L85.5344 125.545ZM85.9178 126.47L85.4544 126.658L85.6521 127.146L86.1291 126.923L85.9178 126.47ZM166.177 89.0446L166.643 89.2256L167.093 88.0656L165.965 88.5915L166.177 89.0446ZM83.2327 127L83.0214 127.453L83.1219 127.5H83.2327V127ZM82.8238 126.809L82.6125 126.356L81.6407 126.809L82.6125 127.262L82.8238 126.809ZM84.0069 126.258L84.2182 125.804L84.0069 125.706L83.7956 125.804L84.0069 126.258ZM85.19 126.809L85.4013 127.262L86.3731 126.809L85.4013 126.356L85.19 126.809ZM84.7811 127V127.5H84.8919L84.9924 127.453L84.7811 127ZM135 78.6049V52.5H134V78.6049H135ZM139.47 77.6158C137.785 77.7177 136.104 77.8828 134.433 78.1094L134.567 79.1003C136.214 78.8771 137.87 78.7144 139.53 78.614L139.47 77.6158ZM139 49.5V78.1149H140V49.5H139ZM119.646 30.3536L139.146 49.8536L139.854 49.1464L120.354 29.6464L119.646 30.3536ZM103.854 46.8536L120.354 30.3536L119.646 29.6464L103.146 46.1464L103.854 46.8536ZM103 20.5V46.5H104V20.5H103ZM83.6464 1.35355L103.146 20.8536L103.854 20.1464L84.3536 0.646447L83.6464 1.35355ZM64.8536 20.8536L84.3536 1.35355L83.6464 0.646447L64.1464 20.1464L64.8536 20.8536ZM65 46.5V20.5H64V46.5H65ZM46.657 30.3638L64.157 46.8638L64.843 46.1362L47.343 29.6362L46.657 30.3638ZM27.8536 49.8536L47.3536 30.3536L46.6464 29.6464L27.1464 49.1464L27.8536 49.8536ZM28 78.0613V49.5H27V78.0613H28ZM32.5597 77.9788C30.8873 77.7776 29.207 77.638 27.5226 77.5618L27.4774 78.5608C29.1367 78.6358 30.7923 78.7734 32.4403 78.9716L32.5597 77.9788ZM32 52.5V78.4752H33V52.5H32ZM47.1464 37.1464L32.1464 52.1464L32.8536 52.8536L47.8536 37.8536L47.1464 37.1464ZM48 82.0065V37.5H47V82.0065H48ZM69.8225 94.2246C63.285 88.7055 55.7306 84.3971 47.6672 81.5353L47.3328 82.4777C55.2845 85.2999 62.7333 89.5485 69.1775 94.9887L69.8225 94.2246ZM69 23.5V94.6066H70V23.5H69ZM84.1464 8.14645L69.1464 23.1464L69.8536 23.8536L84.8536 8.85355L84.1464 8.14645ZM85 110.977V8.5H84V110.977H85ZM119.326 81.9064C104.854 87.291 92.1042 97.3566 84.0715 110.72L84.9285 111.235C92.8359 98.0804 105.398 88.1553 119.674 82.8436L119.326 81.9064ZM119 37.5V82.375H120V37.5H119ZM134.854 52.1464L119.854 37.1464L119.146 37.8536L134.146 52.8536L134.854 52.1464ZM88.5 166V129.872H87.5V166H88.5ZM80 166.5H88V165.5H80V166.5ZM79.5 129.875V166H80.5V129.875H79.5ZM1.371 89.2256C13.2806 119.904 48.4311 137.761 80.1137 130.362L79.8863 129.388C48.6756 136.677 14.0277 119.065 2.30322 88.8637L1.371 89.2256ZM82.3073 126.017L2.04842 88.5915L1.6258 89.4978L81.8847 126.923L82.3073 126.017ZM82.0191 125.35C81.8878 125.659 81.759 125.97 81.6326 126.282L82.5594 126.658C82.6838 126.351 82.8105 126.045 82.9397 125.741L82.0191 125.35ZM77.7925 123.911L82.2681 125.998L82.6907 125.092L78.2151 123.005L77.7925 123.911ZM10.1035 92.229C22.5442 89.2943 36.5284 91.4292 48.8564 97.1778C61.1844 102.926 71.8087 112.267 77.5573 123.683L78.4504 123.233C72.5818 111.579 61.769 102.096 49.279 96.2715C36.789 90.4473 22.5742 88.2598 9.87392 91.2557L10.1035 92.229ZM2.04847 88.5915L9.77741 92.1955L10.2 91.2892L2.47109 87.6852L2.04847 88.5915ZM84.4548 122.001C69.9084 92.6793 33.4177 77.0133 2.09879 87.665L2.42078 88.6117C33.2535 78.1254 69.2298 93.5615 83.559 122.445L84.4548 122.001ZM165.915 87.665C134.596 77.0133 98.1054 92.6793 83.559 122.001L84.4548 122.445C98.784 93.5615 134.76 78.1254 165.593 88.6117L165.915 87.665ZM158.236 92.1955L165.965 88.5915L165.543 87.6852L157.814 91.2892L158.236 92.1955ZM90.4565 123.683C96.2051 112.267 106.829 102.926 119.157 97.1778C131.485 91.4292 145.47 89.2943 157.91 92.229L158.14 91.2557C145.44 88.2598 131.225 90.4473 118.735 96.2715C106.245 102.096 95.432 111.579 89.5634 123.233L90.4565 123.683ZM85.7457 125.998L90.2213 123.911L89.7986 123.005L85.3231 125.092L85.7457 125.998ZM86.3812 126.282C86.2548 125.97 86.126 125.659 85.9947 125.35L85.0741 125.741C85.2033 126.045 85.33 126.351 85.4544 126.658L86.3812 126.282ZM165.965 88.5915L85.7065 126.017L86.1291 126.923L166.388 89.4978L165.965 88.5915ZM87.8862 130.359C119.572 137.766 154.731 119.908 166.643 89.2256L165.711 88.8637C153.984 119.069 119.328 136.682 88.1138 129.385L87.8862 130.359ZM83.444 126.547L83.0351 126.356L82.6125 127.262L83.0214 127.453L83.444 126.547ZM83.7956 125.804L82.6125 126.356L83.0351 127.262L84.2182 126.711L83.7956 125.804ZM85.4013 126.356L84.2182 125.804L83.7956 126.711L84.9787 127.262L85.4013 126.356ZM84.9924 127.453L85.4013 127.262L84.9787 126.356L84.5698 126.547L84.9924 127.453ZM83.2327 127.5H84.7811V126.5H83.2327V127.5Z" fill="black"/>
</svg>
